<svg width="90" height="90" viewBox="0 0 90 90" fill="none" xmlns="http://www.w3.org/2000/svg">
<circle cx="45" cy="45" r="45" fill="#F4F4F4"/>
<g clip-path="url(#clip0_283_770)">
<path d="M63.8784 62.1568L28.0914 25.8453C27.5478 25.2937 26.6663 25.2937 26.1226 25.8453C25.5789 26.3969 25.5789 27.2913 26.1226 27.8429L36.0299 37.8954L26.0949 48.569C25.9083 48.7696 25.7836 49.0213 25.7363 49.293C25.689 49.5648 25.7212 49.8446 25.8288 50.0979C25.9364 50.3513 26.1148 50.5672 26.342 50.7188C26.5691 50.8705 26.8351 50.9514 27.107 50.9515H40.2353L36.1943 67.352C35.9891 68.1852 36.5809 69.1071 37.5444 69.1071C37.9181 69.1071 38.287 68.9545 38.557 68.6645L52.0588 54.1591L61.9098 64.1544C62.1816 64.4302 62.5379 64.5682 62.8941 64.5682C63.2503 64.5682 63.6067 64.4303 63.8784 64.1544C64.4222 63.6028 64.4222 62.7085 63.8784 62.1568ZM63.9062 41.4309C64.0929 41.2303 64.2175 40.9786 64.2648 40.7069C64.3121 40.4351 64.28 40.1553 64.1723 39.902C64.0647 39.6486 63.8863 39.4327 63.6591 39.2811C63.432 39.1294 63.166 39.0485 62.8941 39.0484H49.7658L53.8068 22.6479C53.8815 22.3449 53.855 22.0253 53.7316 21.7391C53.6082 21.453 53.3948 21.2164 53.1248 21.0664C52.8547 20.9164 52.5433 20.8614 52.2393 20.9101C51.9352 20.9588 51.6556 21.1084 51.4442 21.3355L39.855 33.7861L55.8837 50.0497L63.9062 41.4309Z" fill="#039535"/>
</g>
<defs>
<clipPath id="clip0_283_770">
<rect width="48.2143" height="48.2143" fill="white" transform="translate(20.8945 20.8929)"/>
</clipPath>
</defs>
</svg>
