<svg width="90" height="90" viewBox="0 0 90 90" fill="none" xmlns="http://www.w3.org/2000/svg">
<circle cx="45" cy="45" r="45" transform="matrix(-1 0 0 1 90 0)" fill="#F4F4F4"/>
<g clip-path="url(#clip0_283_753)">
<path d="M22.3148 42.9786C23.1187 41.3011 24.319 39.8474 25.8107 38.7445C27.3024 37.6416 29.04 36.9231 30.8715 36.652C34.9841 36.1216 42.1172 38.8871 45.4465 44.3954C41.9863 45.5526 38.9817 47.7868 36.8672 50.7751C36.8138 50.859 36.7774 50.9527 36.7602 51.0509C36.7431 51.149 36.7454 51.2496 36.7671 51.3469C36.7888 51.4441 36.8295 51.536 36.8867 51.6174C36.944 51.6987 37.0167 51.7678 37.1007 51.8207C37.2702 51.9254 37.4737 51.9595 37.6679 51.9156C37.862 51.8717 38.0315 51.7534 38.1402 51.5858C40.0863 48.7894 42.908 46.73 46.1545 45.7365C46.1545 45.7441 46.1621 45.7441 46.1621 45.7517C48.6892 45.0299 51.3585 44.9751 53.9128 45.5925C53.9128 45.5916 53.913 45.5906 53.9134 45.5896C53.9138 45.5887 53.9143 45.5879 53.915 45.5872C53.9157 45.5865 53.9165 45.5859 53.9175 45.5855C53.9184 45.5852 53.9194 45.585 53.9203 45.585C55.2351 45.8979 56.5184 46.3316 57.7543 46.8806C57.8448 46.9209 57.9423 46.9429 58.0413 46.9453C58.1402 46.9476 58.2386 46.9304 58.331 46.8945C58.4233 46.8586 58.5077 46.8048 58.5793 46.7361C58.651 46.6674 58.7085 46.5852 58.7485 46.4942C58.7886 46.4031 58.8104 46.3051 58.8128 46.2055C58.8152 46.106 58.7981 46.007 58.7624 45.9141C58.7267 45.8212 58.6732 45.7363 58.6049 45.6643C58.5366 45.5922 58.4549 45.5343 58.3644 45.494C57.1667 44.9622 55.9271 44.5313 54.6585 44.206C56.0399 40.9981 56.6316 37.5023 56.3834 34.0152L53.5362 34.5835L54.764 30.7496C54.8146 30.5904 54.8118 30.4189 54.756 30.2615C54.7002 30.104 54.5945 29.9694 54.4551 29.8783L52.6323 28.6812C52.4645 28.5717 52.2603 28.5337 52.0647 28.5756C51.869 28.6175 51.698 28.7359 51.5891 28.9047C51.4802 29.0735 51.4425 29.2789 51.4841 29.4757C51.5258 29.6725 51.6435 29.8446 51.8113 29.9541L53.152 30.833L52.1277 34.0455L50.6212 33.1363C49.8753 32.6915 49.2731 32.0394 48.8869 31.2584C48.5007 30.4775 48.3471 29.6009 48.4444 28.7342C48.8279 26.5305 49.7842 24.468 51.2162 22.7561C51.3016 22.6575 51.4113 22.5831 51.5342 22.5406C51.6572 22.498 51.7891 22.4887 51.9167 22.5137L60.2023 24.029C60.3645 24.0593 60.5125 24.1417 60.6241 24.2639C68.5029 32.9848 69.0829 54.1619 69.1055 55.0635C69.1061 55.2358 69.0506 55.4035 68.9473 55.5409C68.5933 56.0106 59.9763 67.1636 46.5537 67.9592H46.5086C46.463 67.9579 46.4177 67.9528 46.373 67.944C43.8138 67.3787 41.449 66.1423 39.5186 64.3602C41.2538 63.584 42.8615 62.5468 44.2865 61.284C44.4309 61.1465 44.5157 60.9575 44.5227 60.7576C44.5298 60.5578 44.4585 60.3632 44.3242 60.2157C44.186 60.0704 43.9968 59.9851 43.797 59.978C43.5972 59.971 43.4026 60.0426 43.2546 60.1778C41.8218 61.4538 40.1841 62.476 38.4113 63.201L38.4038 63.1934C34.3815 64.8224 27.9113 65.3982 22.8345 56.2379C21.5808 54.0279 20.9117 51.5313 20.8912 48.9869C20.8888 46.8993 21.3766 44.8407 22.3148 42.9786ZM58.1761 60.1096C58.2442 60.214 58.3369 60.2998 58.446 60.3593C58.5551 60.4188 58.6772 60.4502 58.8013 60.4506C58.9513 60.4499 59.0979 60.4051 59.2231 60.3218C61.6654 58.671 63.8967 56.7243 65.8666 54.5256C65.9324 54.4509 65.9829 54.364 66.0153 54.2697C66.0476 54.1755 66.0612 54.0757 66.0553 53.9762C66.0494 53.8766 66.024 53.7792 65.9806 53.6895C65.9372 53.5998 65.8767 53.5196 65.8025 53.4535C65.7284 53.3873 65.6419 53.3365 65.5482 53.3039C65.4545 53.2713 65.3553 53.2576 65.2564 53.2636C65.1574 53.2696 65.0606 53.2951 64.9714 53.3387C64.8823 53.3824 64.8025 53.4432 64.7367 53.5179C62.8564 55.6237 60.7235 57.4866 58.387 59.0641C58.2214 59.1747 58.1062 59.347 58.0667 59.543C58.0271 59.739 58.0665 59.9428 58.1761 60.1096ZM25.3352 45.3652C25.4405 45.4186 25.5564 45.4471 25.6742 45.4486C25.8136 45.4498 25.9506 45.4114 26.0692 45.3376C26.1879 45.2639 26.2833 45.1579 26.3446 45.0319C26.8151 44.0178 27.525 43.1348 28.4125 42.4599C29.3 41.7851 30.3382 41.3389 31.4364 41.1601C31.5356 41.1492 31.6316 41.1186 31.7189 41.0699C31.8062 41.0213 31.883 40.9557 31.9448 40.8769C32.0066 40.7981 32.0522 40.7078 32.079 40.6111C32.1057 40.5144 32.113 40.4133 32.1005 40.3137C32.088 40.2141 32.056 40.1181 32.0062 40.0311C31.9564 39.9441 31.8899 39.868 31.8105 39.8071C31.7312 39.7463 31.6406 39.7019 31.544 39.6766C31.4475 39.6514 31.3469 39.6457 31.2481 39.6599C29.9047 39.8666 28.6325 40.4025 27.5436 41.2204C26.4547 42.0383 25.5825 43.113 25.0038 44.35C24.9141 44.5288 24.8986 44.7362 24.9607 44.9266C25.0228 45.1169 25.1576 45.2747 25.3352 45.3652Z" fill="#039535"/>
</g>
<defs>
<clipPath id="clip0_283_753">
<rect width="48.2143" height="48.2143" fill="white" transform="matrix(-1 0 0 1 69.1055 20.8929)"/>
</clipPath>
</defs>
</svg>
