<svg width="90" height="90" viewBox="0 0 90 90" fill="none" xmlns="http://www.w3.org/2000/svg">
<circle cx="45" cy="45" r="45" fill="#F4F4F4"/>
<g clip-path="url(#clip0_283_764)">
<path d="M65.7784 45.9483C65.6695 45.6963 65.49 45.4818 65.2621 45.3312C65.0342 45.1806 64.7676 45.1004 64.4951 45.1004H58.3978V25.3314C58.3978 22.884 56.4246 20.8929 53.999 20.8929H36.0055C33.58 20.8929 31.6067 22.884 31.6067 25.3314V45.1005H25.5093C25.2368 45.1005 24.9703 45.1807 24.7424 45.3313C24.5144 45.4819 24.335 45.6964 24.2261 45.9484C24.1172 46.2004 24.0835 46.479 24.1292 46.75C24.1749 47.0211 24.2981 47.2727 24.4835 47.4742L43.9764 68.6559C44.1074 68.7982 44.2662 68.9118 44.4427 68.9894C44.6192 69.0671 44.8097 69.1071 45.0022 69.1071C45.1948 69.1071 45.3853 69.067 45.5618 68.9894C45.7383 68.9117 45.897 68.7982 46.0281 68.6558L65.521 47.4741C65.7064 47.2726 65.8295 47.021 65.8752 46.7499C65.921 46.4789 65.8873 46.2003 65.7784 45.9483ZM46.5016 46.4125H46.4021V48.026C46.4021 48.8061 45.7754 49.4385 45.0022 49.4385C44.2291 49.4385 43.6023 48.8061 43.6023 48.026V46.4125H42.0032C41.2301 46.4125 40.6033 45.7801 40.6033 45C40.6033 44.2199 41.2301 43.5875 42.0032 43.5875H46.5016C47.3979 43.5875 48.1007 42.8498 48.1007 41.974C48.1007 41.101 47.402 40.3606 46.5016 40.3606H43.5027C41.0399 40.3606 39.1038 38.3373 39.1038 35.9221C39.1038 33.4659 41.0734 31.4836 43.5027 31.4836H43.6023V29.8702C43.6023 29.0901 44.2291 28.4577 45.0022 28.4577C45.7754 28.4577 46.4021 29.0901 46.4021 29.8702V31.4837H48.0012C48.7743 31.4837 49.4011 32.1161 49.4011 32.8962C49.4011 33.6763 48.7743 34.3088 48.0012 34.3088H43.5028C42.6182 34.3088 41.9038 35.0306 41.9038 35.9222C41.9038 36.7998 42.6083 37.5356 43.5028 37.5356H46.5017C48.936 37.5356 50.9006 39.5225 50.9006 41.9741C50.9005 44.3836 48.9698 46.4125 46.5016 46.4125Z" fill="#039535"/>
</g>
<defs>
<clipPath id="clip0_283_764">
<rect width="48.2143" height="48.2143" fill="white" transform="translate(20.8945 20.8929)"/>
</clipPath>
</defs>
</svg>
