<svg width="90" height="90" viewBox="0 0 90 90" fill="none" xmlns="http://www.w3.org/2000/svg">
<circle cx="45" cy="45" r="45" transform="matrix(-1 0 0 1 90 0)" fill="#F4F4F4"/>
<g clip-path="url(#clip0_283_759)">
<path d="M31.5014 63.0769C29.2164 64.529 26.7964 65.7571 24.275 66.7442C23.4277 67.2496 21.447 67.1256 21.7211 68.4965C21.7903 68.7137 21.9416 68.8955 22.1427 69.0032C22.3439 69.1109 22.5791 69.1361 22.7985 69.0734C25.8937 68.0956 28.857 66.7419 31.622 65.0427C32.4616 64.3452 33.4916 65.2571 34.5293 65.2494C35.5419 65.4031 36.5649 65.4782 37.5891 65.4741C44.1742 65.4741 51.5954 62.7875 52.8021 61.0482C53.664 59.7738 52.2617 59.1711 51.9919 58.1808C54.0837 57.9186 56.143 57.4425 58.1374 56.7601C72.3186 43.3532 67.5453 21.5379 67.472 21.5508C67.4388 21.4142 67.3727 21.2878 67.2793 21.1827C67.186 21.0775 67.0683 20.9968 66.9365 20.9475C66.8047 20.8982 66.6629 20.8819 66.5233 20.9001C66.3838 20.9182 66.2509 20.9701 66.1361 21.0514L53.7071 29.8774C53.5533 29.9884 53.4387 30.1451 53.3796 30.3252L52.0177 34.6305C51.3091 34.3289 50.6912 33.8481 50.2249 33.2356C50.1417 33.1212 50.031 33.0296 49.9029 32.9694C49.7748 32.9092 49.6336 32.8823 49.4923 32.8912C45.4499 33.0634 37.7098 40.4514 36.8393 41.2952C36.7461 41.3825 36.6743 41.49 36.6295 41.6095C36.5847 41.729 36.568 41.8571 36.5807 41.9841L37.0892 48.5799L35.1844 48.003C35.0678 47.9693 34.9455 47.9603 34.8253 47.9766C34.705 47.9929 34.5896 48.0341 34.4862 48.0977C34.3836 48.159 34.2953 48.2413 34.2269 48.3393C34.1586 48.4373 34.1118 48.5486 34.0897 48.666L32.4348 57.3542C32.0366 59.4466 33.0804 60.0795 34.7931 58.8103C36.7358 57.3706 43.2201 51.5996 44.588 50.2486C45.9102 48.9424 50.7792 43.7768 51.9022 42.5128C52.8435 41.4536 56.0171 37.7123 56.6661 36.9046C56.7945 36.7444 57.0884 36.3406 57.3789 35.9557C57.4565 35.8536 57.5563 35.7705 57.6708 35.7127C57.7853 35.6549 57.9114 35.624 58.0397 35.6221C58.168 35.6203 58.295 35.6477 58.411 35.7022C58.5271 35.7567 58.6293 35.8369 58.7097 35.9368L58.7252 35.9566C58.8455 36.1038 58.9122 36.2875 58.9143 36.4776C58.9165 36.6676 58.8541 36.8528 58.7373 37.0028C51.6066 46.1138 41.6488 56.7015 31.5014 63.0769Z" fill="#039535"/>
</g>
<defs>
<clipPath id="clip0_283_759">
<rect width="48.2143" height="48.2143" fill="white" transform="matrix(-1 0 0 1 69.1055 20.8929)"/>
</clipPath>
</defs>
</svg>
