<svg width="90" height="90" viewBox="0 0 90 90" fill="none" xmlns="http://www.w3.org/2000/svg">
<circle cx="45" cy="45" r="45" fill="#F4F4F4"/>
<g clip-path="url(#clip0_283_776)">
<path d="M56.9336 34.6607H57.7643V37.5H60.6004V23.3036H57.7643V26.1429H48.4252L56.9336 34.6607ZM25.1487 34.6607H52.9228L44.4144 26.1429H25.1487C19.5113 26.3577 19.5156 34.448 25.1487 34.6607ZM67.6908 55.9554C66.993 55.9557 66.3198 55.6982 65.8 55.2323L64.8546 54.3857L63.9092 55.2323C62.8315 56.1974 61.2031 56.1952 60.1277 55.2323L59.1823 54.3857L58.237 55.2323C56.4433 56.8645 53.493 55.5442 53.5101 53.1161V51.6964H20.8945V65.8929H69.1088V55.9554H67.6908ZM56.3462 46.0179C56.5604 51.6607 64.6417 51.6582 64.8546 46.0178C64.8546 43.6478 61.6205 40.8084 60.6004 39.8031C60.0225 40.3726 56.3462 43.5256 56.3462 46.0179Z" fill="#039535"/>
</g>
<defs>
<clipPath id="clip0_283_776">
<rect width="48.2143" height="48.2143" fill="white" transform="translate(20.8945 20.8929)"/>
</clipPath>
</defs>
</svg>
