<svg width="90" height="90" viewBox="0 0 90 90" fill="none" xmlns="http://www.w3.org/2000/svg">
<circle cx="45" cy="45" r="45" transform="matrix(-1 0 0 1 90 0)" fill="#F4F4F4"/>
<g clip-path="url(#clip0_283_747)">
<path d="M55.6064 24.4265C54.3416 22.8602 52.6553 21.8963 50.728 21.7758C37.3574 20.7517 31.6358 29.9688 31.3949 30.3905C31.2744 30.6315 31.2744 30.9327 31.3949 31.1737C31.5153 31.4146 31.8165 31.5351 32.1176 31.5351C38.6824 31.1134 42.0552 33.3424 44.7654 35.1497C45.97 35.9328 47.0541 36.6557 48.2586 37.0172C48.8609 37.1979 49.4632 37.3184 50.0655 37.3184C51.2098 37.3184 52.3541 36.957 53.4382 36.2943C53.7394 36.1136 53.9803 35.9328 54.2814 35.6919L52.8359 34.9087L42.4165 28.8242C47.5359 29.0049 51.5712 30.511 54.5223 33.2822C54.8837 33.6436 55.2451 34.0051 55.6064 34.4268C56.5098 35.4509 57.2326 36.5955 57.8951 37.8606C58.1962 38.463 58.4974 39.1257 58.7383 39.7884C58.8587 40.0896 59.1599 40.2703 59.461 40.2703C59.5815 40.2703 59.6417 40.2703 59.7621 40.2101C60.1837 40.0293 60.3644 39.6076 60.1837 39.1859C59.2803 36.7762 58.0155 34.728 56.4496 33.0412C56.811 32.258 57.1121 31.4749 57.2326 30.6315C57.5939 28.4627 56.9917 26.1735 55.6064 24.4265ZM67.1702 42.68C67.0497 42.439 66.8088 42.2583 66.4474 42.2583C66.1463 42.2583 65.9054 42.439 65.7849 42.68C62.894 48.5838 59.2803 50.3911 56.3894 51.8369C55.1246 52.4996 53.92 53.102 53.0166 53.9454C51.6916 55.1502 50.9689 56.8973 51.0291 58.8251C51.0291 59.1865 51.0893 59.4877 51.1496 59.8492L52.595 59.0058L63.0747 53.0418C60.3042 57.3792 57.0519 60.0901 53.1973 61.295C52.7155 61.4155 52.1734 61.5962 51.6916 61.6565C50.3666 61.8974 48.9814 62.0179 47.5359 61.8974C46.8734 61.8372 46.1507 61.7769 45.4882 61.6565C45.0666 61.5962 44.645 61.8974 44.5847 62.3191C44.5245 62.7408 44.8257 63.1625 45.2473 63.2228C46.3916 63.4035 47.4757 63.4637 48.5598 63.4637C49.8848 63.4637 51.2098 63.3433 52.4144 63.042C52.8962 63.7649 53.4382 64.4276 54.1007 64.9096C55.5462 66.0542 57.2928 66.7168 59.1599 66.7168C59.5212 66.7168 59.9428 66.6566 60.3042 66.6566C61.3281 66.5361 62.2315 66.1747 63.0144 65.6927C63.7974 65.2108 64.5201 64.5481 65.0622 63.765C72.5304 52.6201 67.4111 43.0415 67.1702 42.68ZM25.9744 45.0295C23.9266 45.8126 22.2403 47.4392 21.3971 49.5477C20.6743 51.4152 20.7346 53.4032 21.5175 55.09C27.3596 67.1385 38.2006 67.5 38.6824 67.5C38.9836 67.5 39.2245 67.3795 39.3449 67.0783C39.4654 66.8373 39.4654 66.5361 39.2847 66.2951C35.6108 60.8131 35.8517 56.7768 36.0926 53.5237C36.1529 52.1381 36.2733 50.7525 35.9722 49.5477C35.6108 47.8006 34.4665 46.2946 32.7801 45.3909C32.479 45.2102 32.1778 45.0897 31.8767 44.9692V46.656L31.8165 58.7046C29.4074 54.1864 28.6846 49.9694 29.6483 46.0536C29.7687 45.5717 29.8892 45.0295 30.0699 44.5475C30.4915 43.2824 31.0937 42.0776 31.9369 40.8125C32.2983 40.2703 32.7199 39.6679 33.1415 39.1257C33.3824 38.7642 33.3824 38.2823 33.021 38.0413C32.6597 37.8004 32.1778 37.8606 31.9369 38.1618C30.3108 40.1498 29.1664 42.2583 28.5039 44.427C27.6005 44.5475 26.7573 44.7283 25.9744 45.0295Z" fill="#039535"/>
</g>
<defs>
<clipPath id="clip0_283_747">
<rect width="48.2143" height="48.2143" fill="white" transform="matrix(-1 0 0 1 69.1055 20.8929)"/>
</clipPath>
</defs>
</svg>
