<svg width="15" height="18" viewBox="0 0 15 18" fill="none" xmlns="http://www.w3.org/2000/svg">
<path d="M7.5 0C9.48912 0 11.3968 0.812753 12.8033 2.25946C14.2098 3.70617 15 5.66833 15 7.71429C15 10.908 12.6333 14.2543 8 17.8286C7.85575 17.9398 7.68031 18 7.5 18C7.31969 18 7.14425 17.9398 7 17.8286C2.36667 14.2543 0 10.908 0 7.71429C0 5.66833 0.790176 3.70617 2.1967 2.25946C3.60322 0.812753 5.51088 0 7.5 0ZM7.5 5.14286C6.83696 5.14286 6.20107 5.41377 5.73223 5.89601C5.26339 6.37825 5 7.0323 5 7.71429C5 8.39627 5.26339 9.05032 5.73223 9.53256C6.20107 10.0148 6.83696 10.2857 7.5 10.2857C8.16304 10.2857 8.79893 10.0148 9.26777 9.53256C9.73661 9.05032 10 8.39627 10 7.71429C10 7.0323 9.73661 6.37825 9.26777 5.89601C8.79893 5.41377 8.16304 5.14286 7.5 5.14286Z" fill="#5C5C5C"/>
</svg>
