<svg width="218" height="26" viewBox="0 0 218 26" fill="none" xmlns="http://www.w3.org/2000/svg">
<g clip-path="url(#clip0_283_608)">
<path d="M0.121094 26V19.6857H16.4527C17.3091 19.6857 17.7373 19.3143 17.7373 18.5714V18.2C17.7373 17.4571 17.3703 17.0362 16.6362 16.9371L5.99315 15.2286C2.07845 14.6838 0.121094 12.641 0.121094 9.1V6.12857C0.121094 4.27143 0.671599 2.78572 1.77261 1.67143C2.87362 0.557142 4.34163 0 6.17665 0H23.9763V4.08572L21.7743 6.31429H8.37867C7.52233 6.31429 7.09416 6.68572 7.09416 7.42857V7.8C7.09416 8.54286 7.46116 8.96381 8.19517 9.06286L18.8383 10.7714C20.869 11.0933 22.3493 11.7495 23.279 12.74C24.2332 13.7305 24.7103 15.1171 24.7103 16.9V19.8714C24.7103 21.7286 24.1598 23.2143 23.0588 24.3286C21.9578 25.4429 20.4898 26 18.6548 26H0.121094ZM27.6378 26V22.4714L30.3903 0H38.4644L44.7034 13.5571H45.0704L51.3095 0H59.3836L62.1361 22.4714V26H55.163L53.8785 10.0286H53.5115L47.823 22.2857H41.9509L36.2624 10.0286H35.8954L34.6108 26H27.6378ZM66.3395 26V0H73.3126V26H66.3395ZM78.8118 26V0H86.3353L98.2629 15.7857H98.6299L98.0794 10.5857V0H105.052V26H97.5289L85.6013 10.2143H85.2343L85.7848 15.4143V26H78.8118Z" fill="#C1C0C0"/>
<path d="M117.905 26V6.31429H108.547V0H134.237V4.08572L132.035 6.31429H124.879V26H117.905ZM137.732 26V0H160.67V3.9L158.468 6.12857H144.705V10.0286H156.449V15.9714H144.705V19.8714H160.67V26H137.732ZM163.994 19.8714V6.12857C163.994 4.27143 164.545 2.78572 165.646 1.67143C166.747 0.557142 168.215 0 170.05 0H187.483V4.08572L185.281 6.31429H172.619C171.518 6.31429 170.968 6.87143 170.968 7.98572V18.0143C170.968 19.1286 171.518 19.6857 172.619 19.6857H187.483V26H170.05C168.215 26 166.747 25.4429 165.646 24.3286C164.545 23.2143 163.994 21.7286 163.994 19.8714ZM191.887 26V0H198.86V9.84286H210.971V0H217.944V26H210.971V16.1571H198.86V26H191.887Z" fill="#949494"/>
</g>
<defs>
<clipPath id="clip0_283_608">
<rect width="218" height="26" fill="white"/>
</clipPath>
</defs>
</svg>
