<svg width="32" height="32" viewBox="0 0 32 32" fill="none" xmlns="http://www.w3.org/2000/svg">
<g id="*">
<rect width="32" height="32" rx="5" fill="#039535"/>
<path id="Vector" d="M10 8C9.20435 8 8.44129 8.33714 7.87868 8.93726C7.31607 9.53737 7 10.3513 7 11.2V11.5216L16 16.6912L25 11.5232V11.2C25 10.3513 24.6839 9.53737 24.1213 8.93726C23.5587 8.33714 22.7956 8 22 8H10ZM25 13.3392L16.3555 18.304C16.2462 18.3667 16.1241 18.3996 16 18.3996C15.8759 18.3996 15.7538 18.3667 15.6445 18.304L7 13.3392V20.8C7 21.6487 7.31607 22.4626 7.87868 23.0627C8.44129 23.6629 9.20435 24 10 24H22C22.7956 24 23.5587 23.6629 24.1213 23.0627C24.6839 22.4626 25 21.6487 25 20.8V13.3392Z" fill="white"/>
</g>
</svg>
