<svg width="24" height="21" viewBox="0 0 24 21" fill="none" xmlns="http://www.w3.org/2000/svg">
<path id="Vector" d="M1.89473 12.3529C0.849938 12.3529 0 11.5217 0 10.5C0 9.47825 0.849938 8.64706 1.89473 8.64706H22.1053C23.1501 8.64706 24 9.47825 24 10.5C24 11.5217 23.1501 12.3529 22.1053 12.3529H1.89473ZM1.89473 3.70587C0.849938 3.70587 0 2.87473 0 1.85294C0 0.831141 0.849938 0 1.89473 0H22.1053C23.1501 0 24 0.831187 24 1.85294C24 2.87468 23.1501 3.70587 22.1053 3.70587H1.89473ZM1.89473 21C0.849938 21 0 20.1688 0 19.1471C0 18.1253 0.849938 17.2941 1.89473 17.2941H22.1053C23.1501 17.2941 24 18.1253 24 19.1471C24 20.1688 23.1501 21 22.1053 21H1.89473Z" fill="black"/>
</svg>
