<svg width="32" height="32" viewBox="0 0 32 32" fill="none" xmlns="http://www.w3.org/2000/svg">
<rect width="32" height="32" rx="5" fill="#039535"/>
<path fill-rule="evenodd" clip-rule="evenodd" d="M20.2414 24.9974C18.9432 24.9497 15.264 24.4413 11.4109 20.5899C7.55871 16.7376 7.05115 13.0601 7.00247 11.7613C6.93035 9.78193 8.44671 7.85938 10.1984 7.10856C10.4093 7.0175 10.6403 6.98282 10.8687 7.00795C11.0971 7.03307 11.315 7.11713 11.5011 7.25187C12.9435 8.30284 13.9388 9.8928 14.7934 11.143C14.9815 11.4176 15.0619 11.7519 15.0193 12.082C14.9768 12.4121 14.8142 12.715 14.5627 12.933L12.8038 14.2391C12.7188 14.3004 12.659 14.3905 12.6354 14.4926C12.6119 14.5947 12.6262 14.7019 12.6758 14.7943C13.0742 15.5181 13.7828 16.5961 14.5942 17.4073C15.4065 18.2185 16.5352 18.9738 17.3096 19.4172C17.4067 19.4717 17.521 19.487 17.629 19.4598C17.737 19.4327 17.8304 19.3652 17.8902 19.2712L19.0351 17.5289C19.2456 17.2494 19.5561 17.0621 19.9016 17.0063C20.2471 16.9506 20.6008 17.0306 20.8886 17.2297C22.1571 18.1076 23.6374 19.0856 24.721 20.4727C24.8667 20.6601 24.9594 20.8832 24.9894 21.1187C25.0194 21.3541 24.9855 21.5933 24.8914 21.8112C24.1368 23.5715 22.2274 25.0704 20.2414 24.9974Z" fill="white"/>
</svg>
